<?xml version="1.0" encoding="UTF-8" standalone="no"?>
<svg
   xmlns:dc="http://purl.org/dc/elements/1.1/"
   xmlns:cc="http://creativecommons.org/ns#"
   xmlns:rdf="http://www.w3.org/1999/02/22-rdf-syntax-ns#"
   xmlns:svg="http://www.w3.org/2000/svg"
   xmlns="http://www.w3.org/2000/svg"
   xmlns:sodipodi="http://sodipodi.sourceforge.net/DTD/sodipodi-0.dtd"
   xmlns:inkscape="http://www.inkscape.org/namespaces/inkscape"
   height="24"
   viewBox="0 0 24 24"
   width="24"
   version="1.1"
   id="svg4"
   sodipodi:docname="duck.svg"
   inkscape:version="1.0.2 (e86c870879, 2021-01-15)">
  <metadata
     id="metadata10">
    <rdf:RDF>
      <cc:Work
         rdf:about="">
        <dc:format>image/svg+xml</dc:format>
        <dc:type
           rdf:resource="http://purl.org/dc/dcmitype/StillImage" />
      </cc:Work>
    </rdf:RDF>
  </metadata>
  <defs
     id="defs8" />
  <sodipodi:namedview
     pagecolor="#ffffff"
     bordercolor="#666666"
     borderopacity="1"
     objecttolerance="10"
     gridtolerance="10"
     guidetolerance="10"
     inkscape:pageopacity="0"
     inkscape:pageshadow="2"
     inkscape:window-width="1581"
     inkscape:window-height="942"
     id="namedview6"
     showgrid="false"
     inkscape:zoom="8.9166666"
     inkscape:cx="21.45084"
     inkscape:cy="11.007905"
     inkscape:window-x="473"
     inkscape:window-y="43"
     inkscape:window-maximized="0"
     inkscape:current-layer="svg4"
     inkscape:document-rotation="0" />
  <g
     id="g25"
     transform="matrix(1.1438804,0,0,1.1438804,47.115477,14.475151)">
    <path
       d="m -36.529049,-3.0692056 a 1.066575,1.066575 0 0 0 -1.066575,1.066575 1.066575,1.066575 0 0 0 1.066575,1.06657502 1.066575,1.066575 0 0 0 1.066575,-1.06657502 1.066575,1.066575 0 0 0 -1.066575,-1.066575 m 1.066575,-2.1331503 a 3.55525,3.55525 0 0 1 3.55525,3.5552503 c 0,1.20878502 -0.604393,2.27536002 -1.521647,2.915305 1.123459,0.1066575 2.389128,0.3626355 3.654797,0.99547 2.13315,1.066575 2.8442,-0.355525 2.8442,-0.355525 0,0 -0.71105,6.39945 -4.97735,6.39945 h -4.2663 c 0,0 -3.55525,0 -3.55525,-3.55525 0,-2.13315 2.13315,-2.8442 1.4221,-4.26629998 -2.8442,0 -2.8442,-2.48867502 -2.8442,-2.48867502 0.71105,0.355525 1.592752,0.355525 2.13315,0.1066575 0.135099,-1.84873 1.678078,-3.3063828 3.55525,-3.3063828 z"
       id="path2"
       style="stroke-width:0.71105" />
    <path
       d="m -31.800262,-5.6478664 h -7.324424 c -0.134891,0 -0.244147,0.1092564 -0.244147,0.2441483 v 0.4882944 c 0,0.1348911 0.109256,0.2441475 0.244147,0.2441475 h 7.324424 c 0.134891,0 0.244147,-0.1092564 0.244147,-0.2441475 v -0.4882944 c 0,-0.1348919 -0.109256,-0.2441483 -0.244147,-0.2441483 z m -4.638801,-0.9765895 -0.976591,-0.4882951 0.976591,-0.4882951 0.488294,-0.9765894 0.488295,0.9765894 0.976589,0.4882951 -0.976589,0.4882951 -0.244148,0.4882951 h 3.173917 l -1.318548,-3.0767154 a 0.97590311,0.97590311 0 0 1 -0.02884,-0.6935326 l 0.859093,-2.5775862 -2.862323,1.635636 a 1.9530118,1.9530118 0 0 0 -0.815757,0.9025822 l -1.693163,3.809616 h 2.197326 z m 0.976589,-3.4180641 0.244148,-0.488295 0.244147,0.488295 0.488294,0.2441474 -0.488294,0.2441476 -0.244147,0.4882944 -0.244148,-0.4882944 -0.488295,-0.2441476 z"
       id="path12"
       style="stroke-width:0.0152592" />
  </g>
</svg>
